<?xml version="1.0" standalone="no"?><!DOCTYPE svg PUBLIC "-//W3C//DTD SVG 1.1//EN" "http://www.w3.org/Graphics/SVG/1.1/DTD/svg11.dtd"><svg t="1789180648224" class="icon" viewBox="0 0 1024 1024" version="1.1" xmlns="http://www.w3.org/2000/svg" p-id="1050" xmlns:xlink="http://www.w3.org/1999/xlink" width="200" height="200"><path d="M930.368 249.76h-31.728a95.984 95.984 0 0 1-67.888-28.112l-39.76-39.776a96.016 96.016 0 0 0-67.888-28.112H570.88c-15.232 1.264-29.472 5.6-45.76 16.448l-0.192 0.16c-11.52 7.728-79.824 77.152-89.664 86.992-45.44 45.44-32.416 170.384 57.68 183.056 59.344 8.288 109.92-37.488 109.92-94.656v-28.64c0-41.68 26.832-76.864 64-90.112v34.992c-19.04 11.12-32 31.52-32 55.104v28.64c0 70.592-57.408 128-128 128-3.456 0-6.944-0.704-10.432-0.992-58.768 34.208-162.272 94.976-202.256 121.76a157.072 157.072 0 0 0-10.4 7.232c-46 34.24-73.44 92.064-62.496 156.032 2.176 12.672 6.352 24.688 11.472 36.224l-0.368-0.24H138.88a48 48 0 0 0 0 96h399.52c14.56 0 26.768-9.632 30.96-22.56 10.4-32-37.664-70.448-80.512-73.04 11.168-18.992 18.032-40.816 18.032-64.4 0-33.904-13.12-65.84-36.96-89.968l22.768-22.48a159.488 159.488 0 0 1 46.192 112.448c0 11.136-1.92 21.664-4.4 31.984h68.4v96a32 32 0 0 0 32 32H753.92c24.56 0 40.4-26.752 28.016-47.936a96.272 96.272 0 0 0-71.2-46.848l7.104-56.944c38.464-23.616 66.816-62.832 74.608-108.256 10.912-63.552-16.144-120.944-61.568-155.28V409.76h96c35.2 0 78.816-24.704 96.928-54.88l33.984-56.656c12.8-21.328-2.56-48.48-27.44-48.48z m-167.488 24a24 24 0 1 1 0-48 24 24 0 0 1 0 48z" fill="#ffffff" p-id="1051"></path></svg>